<svg xmlns:xlink="http://www.w3.org/1999/xlink" width="512" height="512" viewBox="0 0 512 512" fill="none" xmlns="http://www.w3.org/2000/svg" id="svg950119264_1189">
<path d="M325.368 324.723C305.296 324.723 288.968 308.431 288.968 288.403C288.968 268.375 305.296 252.083 325.368 252.083C345.44 252.083 361.768 268.375 361.768 288.403C361.768 308.431 345.44 324.723 325.368 324.723ZM325.368 272.837C316.767 272.837 309.768 279.821 309.768 288.403C309.768 296.985 316.767 303.969 325.368 303.969C333.969 303.969 340.968 296.985 340.968 288.403C340.968 279.821 333.969 272.837 325.368 272.837Z" fill="black"></path>
<path d="M349.6 399.99H162.4C127.934 399.99 100 372.116 100 337.726V152.222C100 130.005 118.044 112 140.31 112H318.379C324.12 112 328.779 116.649 328.779 122.377C328.779 128.106 324.12 132.755 318.379 132.755H141.392C131.668 132.755 122.641 139.365 121.06 148.943C119.053 161.126 128.465 171.7 140.31 171.7H349.6C384.066 171.7 412 199.574 412 233.964V337.736C412 372.127 384.066 400 349.6 400V399.99ZM120.8 187.412V337.726C120.8 360.618 139.458 379.235 162.4 379.235H349.6C372.542 379.235 391.2 360.618 391.2 337.726V233.954C391.2 211.061 372.542 192.444 349.6 192.444H140.321C133.238 192.444 126.593 190.618 120.8 187.412Z" fill="black"></path>
</svg>