<svg xmlns:xlink="http://www.w3.org/1999/xlink" width="695" height="686" viewBox="0 0 695 686" fill="none" xmlns="http://www.w3.org/2000/svg" id="svg1244948115_34839">
<path fill-rule="evenodd" clip-rule="evenodd" d="M663.852 85.827L668.056 102.693L579.315 188.744L565.203 202.324L551.421 215.542C543.562 223.048 535.143 230.961 526.361 238.52C525.128 239.583 523.884 240.639 522.633 241.689C517.48 245.973 512.168 249.994 506.734 253.723C501.306 257.448 495.752 260.887 490.109 264.011C478.883 270.203 466.478 275.766 452.184 281.019C443.42 284.241 434.362 287.345 425.438 290.361L418.777 292.607C416.242 293.461 413.706 294.315 411.172 295.172L408.744 296.001C394.303 300.975 382.15 305.964 371.656 311.226C359.28 317.431 348.467 324.883 339.493 333.387L338.557 334.284C329.401 343.163 321.296 354.081 314.467 366.734C308.48 377.822 302.968 390.283 297.12 405.948L292.023 419.632C288.64 428.697 285.158 437.895 281.553 446.787C275.792 461.001 269.752 473.311 263.093 484.421C256.398 495.561 248.41 506.342 239.358 516.463C231.384 525.324 222.979 533.829 214.925 541.791L211.872 544.8C203.396 553.123 194.909 561.417 186.432 569.697L97.3074 656.137L80.637 651.356L173.396 561.411C177.441 557.463 181.487 553.51 185.533 549.552L201.459 533.952L203.592 531.848C213.083 522.467 221.104 514.231 228.791 505.345C237.692 495.003 245.42 483.761 251.761 471.931C257.887 460.499 263.496 447.612 268.91 432.532C271.364 425.699 273.77 418.703 276.12 411.796L280.567 398.703L283.373 390.487C284.04 388.55 284.709 386.654 285.378 384.795C290.075 371.77 294.863 360.624 299.947 350.862C306.35 338.569 314.007 327.976 322.717 319.363L323.581 318.519C332.551 309.856 343.54 302.353 356.244 296.215C367.533 290.761 380.585 285.765 396.147 280.94C399.572 279.877 403.006 278.825 406.442 277.778L418.24 274.184C424.922 272.144 431.689 270.054 438.3 267.921C453.423 263.041 466.383 257.921 477.918 252.269C489.883 246.406 501.288 239.174 511.815 230.775C522.175 222.45 531.932 213.353 540.934 204.762C547.796 198.201 554.628 191.635 561.443 185.078L568.882 177.918L663.852 85.827ZM672.827 121.798L591.185 200.965C584.236 207.659 577.272 214.367 570.283 221.076L563.286 227.784C554.889 235.818 544.925 245.234 534.692 254.148C524.507 262.976 513.895 270.846 503.148 277.538C492.197 284.332 480.016 290.655 466.941 296.334C456.025 301.074 444.606 305.566 433.394 309.915L427.574 312.167C412.199 318.115 400.001 323.583 389.186 329.375C377.122 335.836 366.488 343.4 357.552 351.875L356.535 352.85C347.389 361.726 339.146 372.489 332.038 384.84C325.916 395.481 320.048 407.566 313.569 422.874L311.214 428.434C306.478 439.598 301.579 450.985 296.36 461.992C290.203 474.973 283.41 487.036 276.171 497.84C268.943 508.59 260.849 518.745 251.426 528.883C242.133 538.854 232.651 548.284 223.788 556.991L216.298 564.327C212.306 568.237 208.313 572.143 204.321 576.042L196.662 583.52L116.208 661.539L99.5392 656.758L175.761 582.85L176.6 582.034C179.471 579.25 182.336 576.473 185.211 573.687C191.449 567.595 197.689 561.503 203.925 555.397L213.33 546.172L216.339 543.205C224.414 535.223 232.842 526.693 240.853 517.792C249.988 507.579 258.048 496.697 264.814 485.445C271.526 474.246 277.611 461.845 283.412 447.533C287.477 437.509 291.379 427.109 295.161 416.949L298.998 406.642C304.814 391.067 310.289 378.686 316.232 367.678C322.781 355.555 330.506 345.052 339.206 336.448L340.112 335.563C349.092 326.89 360.005 319.305 372.547 313.02C383.568 307.495 396.41 302.279 411.807 297.072L419.41 294.508C430.461 290.786 441.888 286.938 452.869 282.903C467.255 277.613 479.75 272.008 491.071 265.767C496.456 262.785 501.759 259.509 506.958 255.98C512.767 252.039 518.438 247.781 523.921 243.22C525.193 242.153 526.459 241.078 527.715 239.995C536.565 232.377 544.966 224.476 552.797 216.994L553.923 215.913C558.157 211.862 562.383 207.808 566.598 203.756L580.748 190.142L668.622 104.932L672.827 121.798ZM677.594 140.916L603.053 213.197C596.103 219.896 589.141 226.608 582.155 233.321L572.576 242.508C565.244 249.516 556.119 258.143 546.739 266.602C541.03 271.719 535.419 276.431 529.812 280.826L527.569 282.576L527.012 282.997C523.384 285.772 519.751 288.424 516.086 290.961C505.541 298.25 493.954 305.199 481.647 311.611C478.771 313.107 475.88 314.574 472.942 316.033L470.729 317.126C464.059 320.404 457.108 323.669 449.498 327.171L443.242 330.039L442.173 330.531C428.288 336.927 417.213 342.606 407.476 348.316C405.58 349.427 403.728 350.568 401.905 351.729L400.543 352.602C399.919 353.005 399.284 353.401 398.668 353.81L397.676 354.487C389.937 359.695 382.858 365.319 376.553 371.302L375.437 372.372C366.306 381.231 357.875 391.78 350.378 403.727C349.198 405.607 348.016 407.543 346.825 409.544L345.883 411.137C341.162 419.171 336.303 428.253 330.926 439.07L330.386 440.157C324.453 452.141 318.015 464.917 311.14 477.149C310.282 478.67 309.415 480.18 308.542 481.678C302.422 492.162 295.915 502.064 289.158 511.169C281.62 521.286 273.223 531.141 263.488 541.298C258.38 546.598 253.157 551.889 247.981 557.095L235.772 569.34L135.087 666.97L118.419 662.191L197.052 585.946L205.716 577.475C209.711 573.574 213.706 569.665 217.702 565.752C220.199 563.307 222.696 560.876 225.192 558.425L228.174 555.492C236.18 547.598 244.607 539.144 252.894 530.255C262.388 520.039 270.547 509.803 277.833 498.962C285.129 488.075 291.97 475.928 298.169 462.857C303.841 450.897 309.127 438.508 314.237 426.441L315.413 423.662C321.859 408.429 327.695 396.414 333.776 385.847C340.789 373.656 348.917 363.041 357.931 354.295L358.144 354.09C367.109 345.432 377.869 337.714 390.133 331.146C400.35 325.675 411.821 320.489 426.082 314.904L428.407 313.998L434.019 311.826C445.284 307.459 456.758 302.946 467.741 298.176C480.914 292.453 493.182 286.084 504.206 279.245C515.044 272.495 525.743 264.563 536.006 255.668C546.18 246.809 555.795 237.73 564.672 229.237C571.517 222.685 578.333 216.129 585.133 209.582L592.608 202.383L673.389 124.05L677.594 140.916ZM678.153 143.16L682.357 160.027L587.129 252.364L573.967 264.769C568.947 269.499 563.837 274.296 558.751 279.006C548.278 288.64 538.504 296.886 528.874 304.215C518.789 311.886 507.744 319.405 496.047 326.565L494.06 327.773C483.128 334.387 472.128 340.537 463.234 345.421L457.653 348.484C448.295 353.647 436.813 360.18 425.821 367.332C423.68 368.723 421.595 370.148 419.536 371.589C410.847 377.655 402.874 384.109 395.778 390.858L394.507 392.074C385.426 400.88 376.772 411.175 368.784 422.674C361.255 433.509 354.342 444.829 348.872 454.056L345.348 460.029C337.729 472.917 331.578 482.862 325.596 491.979C318.043 503.473 310.099 514.363 301.986 524.342C294.266 533.794 285.605 543.391 275.505 553.681C270.722 558.526 265.851 563.4 261.048 568.19L250.504 578.7C249.544 579.658 248.585 580.616 247.628 581.572L153.977 672.381L137.312 667.603L237.176 570.77L247.379 560.538C253.223 554.672 259.149 548.686 264.93 542.683C274.741 532.448 283.191 522.53 290.764 512.362C291.735 511.053 292.702 509.727 293.662 508.386C300.388 498.998 306.841 488.842 312.882 478.13C317.481 469.948 321.877 461.534 326.061 453.273C327.456 450.519 328.829 447.78 330.177 445.075L332.741 439.913L333.84 437.715C339.115 427.207 343.892 418.381 348.536 410.579C349.721 408.588 350.898 406.663 352.074 404.791C359.495 392.969 367.824 382.544 376.829 373.807L377.047 373.597C386.004 364.947 396.581 357.022 408.487 350.041L409.915 349.21C419.503 343.67 430.445 338.113 444.123 331.835L447.856 330.126C460.78 324.2 471.772 319.003 482.571 313.384C494.948 306.936 506.607 299.945 517.224 292.605C519.034 291.352 520.837 290.069 522.635 288.759L524.943 287.067C526.646 285.801 528.349 284.496 530.05 283.174C536.024 278.532 541.994 273.54 548.076 268.089L549.744 266.581C559.728 257.529 569.256 248.465 576.544 241.479C585.883 232.527 595.174 223.57 604.468 214.612L678.153 143.16ZM687.119 179.138L598.987 264.595L593.08 270.189L587.173 275.795C581.704 280.989 576.228 286.187 570.723 291.366L568.808 293.156C558.682 302.592 549.955 310.295 541.485 317.277C531.654 325.375 521.073 333.384 510.034 341.083L508.151 342.392C497.473 349.786 486.759 356.77 478.23 362.263L473.821 365.102C465.036 370.775 454.182 377.938 443.51 385.664C432.726 393.473 423.194 401.355 414.429 409.718L413.15 410.947L412.963 411.129C403.799 420.015 395.156 429.765 386.54 440.931L385.137 442.757C377.451 452.813 370.241 463.07 364.503 471.385L360.389 477.353C354.481 485.897 347.198 496.271 339.649 506.389C331.526 517.273 323.106 527.68 314.623 537.316L313.241 538.878C305.82 547.225 297.587 555.899 287.485 566.015C283.893 569.6 280.294 573.173 276.693 576.741L271.29 582.091C267.347 585.994 263.407 589.894 259.486 593.793L172.852 677.798L156.191 673.021L249.029 583.001L264.719 567.357C268.789 563.293 272.89 559.182 276.932 555.088C287.075 544.754 295.777 535.112 303.537 525.611C311.692 515.579 319.676 504.635 327.268 493.083L328.519 491.167C335.58 480.307 342.159 469.364 347.379 460.529L350.65 454.989C356.11 445.783 362.99 434.526 370.426 423.82C378.065 412.824 386.318 402.94 394.971 394.423L396.205 393.219C405.112 384.617 415.441 376.475 426.91 369.014C437.908 361.865 449.332 355.364 458.634 350.233L465.731 346.336C474.898 341.288 486.075 335.004 497.089 328.277C508.85 321.079 519.951 313.519 530.085 305.813C539.737 298.47 549.558 290.186 560.108 280.482C566.045 274.984 572.009 269.372 577.825 263.887L580.308 261.544C583.038 258.969 585.767 256.395 588.51 253.816L682.917 162.277L687.119 179.138ZM691.886 198.246L582.914 303.914C580.534 306.058 578.161 308.212 575.79 310.37L572.235 313.61C566.261 319.058 560.083 324.692 553.899 330.132C544.992 337.965 535.473 345.851 525.572 353.597L523.587 355.144C514.106 362.506 504.432 369.678 496.347 375.598L488.216 381.536C479.947 387.588 469.902 395.058 460.079 402.838C449.125 411.507 439.317 420.057 430.189 428.921C421.026 437.805 412.185 447.331 403.162 458.04L401.694 459.788C394.369 468.54 387.339 477.4 381.498 484.874L374.861 493.395C366.537 504.059 359.77 512.51 353.267 520.371C344.591 530.826 335.778 540.834 327.07 550.116C322.839 554.624 318.499 559.128 314.213 563.548L304.791 573.251C303.075 575.022 301.366 576.793 299.667 578.562L191.748 683.205L175.087 678.427L260.887 595.232L266.679 589.483L272.478 583.74C276.13 580.124 279.784 576.507 283.432 572.882L288.901 567.436L290.78 565.548C300.688 555.571 308.781 546.977 316.123 538.645C324.612 529.005 333.066 518.557 341.252 507.591L342.602 505.775C349.779 496.088 356.573 486.4 362.118 478.376L367.741 470.225C373.539 461.863 380.633 451.861 388.122 442.158C396.208 431.68 404.666 422.085 413.278 413.622L414.725 412.211C423.362 403.871 432.743 396.021 443.351 388.259L444.684 387.29C453.115 381.184 462.351 374.91 474.264 367.202L482.579 361.84C491.104 356.323 501.283 349.63 511.177 342.729C522.294 334.972 532.919 326.932 542.757 318.826L544.353 317.505C552.881 310.412 561.746 302.525 572.093 292.83C575.765 289.374 579.424 285.91 583.076 282.446L588.55 277.251C592.488 273.513 596.421 269.778 600.37 266.046L687.682 181.385L691.886 198.246ZM61.7798 645.927L161.469 549.264L168.14 542.74C172.911 538.076 177.684 533.41 182.454 528.737L189.606 521.719L191.441 519.911C199.469 511.982 208.494 502.835 216.769 492.913C225.353 482.536 232.777 470.971 238.835 458.538C244.507 446.898 249.779 433.67 254.954 418.096C256.577 413.214 258.19 408.245 259.775 403.337L263.676 391.231C265.369 385.987 267.094 380.682 268.833 375.474C273.996 360.001 279.356 346.975 285.217 335.653C291.772 322.992 299.659 312.149 308.656 303.421L308.837 303.246C317.798 294.592 328.791 287.11 341.512 281.009C353.004 275.495 366.114 270.564 381.591 265.931C388.126 263.972 394.805 262.041 401.343 260.161L411.131 257.347C415.517 256.083 419.944 254.798 424.3 253.506C439.914 248.877 453.199 244.102 464.916 238.907C477.509 233.325 489.223 226.411 499.74 218.354C510.332 210.193 520.103 201.126 529.085 192.544C535.393 186.508 541.676 180.469 547.945 174.437L557.026 165.694L659.094 66.722L663.295 83.5747L567.495 176.471L566.868 177.076C557.797 185.806 548.702 194.563 539.555 203.307L536.702 206.023C528.55 213.756 519.805 221.787 510.567 229.205C500.172 237.501 488.892 244.652 477.041 250.464C465.611 256.07 452.739 261.155 437.69 266.01C431.042 268.154 424.233 270.257 417.51 272.31L410.825 274.346C405.731 275.897 400.634 277.448 395.557 279.023L393.04 279.811C378.484 284.422 366.142 289.206 355.376 294.406C342.828 300.464 331.925 307.843 322.945 316.353L322.036 317.224C312.879 326.111 304.851 337.115 298.176 349.93C293.05 359.772 288.228 370.999 283.501 384.109C282.825 385.982 282.152 387.893 281.48 389.845L278.665 398.083L274.215 411.184C271.872 418.069 269.474 425.043 267.031 431.849C261.651 446.834 256.08 459.634 250.001 470.978C243.717 482.694 236.072 493.815 227.28 504.028C219.384 513.163 211.077 521.654 201.131 531.462L197.082 535.442L190.227 542.16L182.8 549.424C179.112 553.027 175.474 556.576 171.935 560.028L78.4235 650.7L61.7798 645.927ZM53.1534 643.487L50.5585 633.08L149.611 537.033L153.529 533.208C158.911 527.954 164.298 522.697 169.682 517.428L177.754 509.517C186.26 501.161 196.063 491.34 204.766 480.523C212.992 470.246 220.179 458.434 226.131 445.415C231.476 433.725 236.563 420.311 241.686 404.408C242.645 401.429 243.597 398.444 244.547 395.457L248.289 383.69C250.625 376.363 253.019 368.943 255.465 361.7C260.62 346.436 266.048 333.482 272.055 322.098C278.506 309.884 286.19 299.329 294.904 290.71L295.819 289.816C304.786 281.157 315.733 273.63 328.358 267.441C339.862 261.8 352.903 256.797 368.224 252.144C378.195 249.116 388.478 246.204 398.425 243.389C402.625 242.2 406.823 241.01 411.008 239.811C426.94 235.243 440.399 230.655 452.155 225.783C465.286 220.337 477.243 213.671 487.699 205.968C498.367 198.049 508.197 188.963 517.231 180.324C523.791 174.043 530.326 167.758 536.845 161.48L545.164 153.467L645.201 56.4625L657.407 59.9606L658.531 64.4661L555.635 164.242L554.879 164.97C545.851 173.659 536.798 182.374 527.701 191.083C518.732 199.649 508.99 208.688 498.52 216.753C488.131 224.712 476.55 231.547 464.102 237.063C452.471 242.22 439.266 246.967 423.729 251.575C419.383 252.863 414.964 254.146 410.586 255.408L397.519 259.166C392.03 260.749 386.473 262.364 381.014 264.001C365.404 268.676 352.2 273.645 340.644 279.191C328.063 285.23 317.139 292.603 308.149 301.121L307.262 301.971C298.103 310.858 290.089 321.875 283.44 334.72C277.533 346.127 272.133 359.247 266.932 374.827C264.848 381.073 262.783 387.454 260.77 393.701L257.88 402.674C256.294 407.59 254.677 412.565 253.054 417.453C247.904 432.946 242.664 446.094 237.034 457.648C231.035 469.957 223.697 481.389 215.227 491.62C207.22 501.223 198.632 510.022 188.202 520.28C178.858 529.457 169.498 538.597 160.153 547.721L59.5091 645.312L53.1534 643.487ZM45.8041 613.945L137.759 524.778C147.142 515.634 156.535 506.474 165.916 497.276L167.997 495.231C176.349 487.001 185.024 478.138 192.828 468.165C200.799 457.92 207.845 445.961 213.768 432.62C218.983 420.872 223.881 407.803 229.186 391.49L233.72 377.52C236.801 368.047 239.973 358.428 243.265 349.106C248.551 334.138 254.139 321.353 260.351 310.021C267.12 297.668 275.141 286.953 284.19 278.169L284.389 277.977C293.393 269.282 304.253 261.666 316.671 255.339C328.132 249.5 341.008 244.33 356.036 239.533C366.904 236.066 378.148 232.781 389.129 229.601L398.496 226.891L400.877 226.196C415.421 221.923 427.374 217.891 438.181 213.612L439.755 212.986C453.203 207.582 465.301 201.062 475.712 193.607C485.824 186.345 494.889 178.153 505.389 168.088C514.734 159.125 524.034 150.162 533.307 141.217L626.315 51.0303L642.985 55.81L543.774 152.013L529.454 165.8C524.928 170.153 520.395 174.508 515.85 178.863L513.489 181.113C505.163 189.017 496.178 197.171 486.509 204.343C476.188 211.953 464.371 218.539 451.389 223.918L449.425 224.723C438.205 229.272 425.431 233.582 410.458 237.872C407.69 238.666 404.917 239.454 402.141 240.24L397.976 241.42C387.989 244.247 377.662 247.17 367.644 250.213C352.214 254.904 339.076 259.945 327.479 265.627C315.019 271.73 304.159 279.136 295.175 287.649L294.24 288.545C285.076 297.436 277.017 308.405 270.288 321.146C264.236 332.606 258.767 345.656 253.57 361.043C251.124 368.287 248.731 375.704 246.396 383.026L244.08 390.306C242.651 394.802 241.224 399.297 239.781 403.777L238.933 406.391C234.129 421.072 229.337 433.584 224.313 444.566C218.429 457.438 211.327 469.11 203.206 479.254C195.165 489.25 186.156 498.406 178.121 506.332L176.352 508.072C171.145 513.184 165.931 518.284 160.719 523.375L148.225 535.574L50.0083 630.81L45.8041 613.945ZM41.0215 594.846L154.154 485.146L156.956 482.348C164.835 474.464 173.416 465.662 180.927 455.897C188.754 445.721 195.764 433.728 201.763 420.253L202.481 418.628C207.257 407.733 211.91 395.54 217.028 380.512L220.11 371.435C223.95 360.148 227.915 348.667 232.08 337.616C237.586 323.016 243.396 310.461 249.844 299.232C256.792 287.133 264.927 276.525 274.02 267.701L274.236 267.492C283.276 258.763 294.026 251.037 306.193 244.524C317.564 238.439 330.221 233.038 344.886 228.015C356.44 224.059 368.251 220.397 379.834 216.866L386.753 214.762C403.109 209.792 416.138 205.298 427.753 200.614C441.294 195.155 453.425 188.673 463.806 181.347C474.989 173.458 485.019 164.064 493.543 155.878C502.879 146.913 512.171 137.945 521.447 128.993L607.427 45.6193L624.089 50.3967L531.909 139.783C522.639 148.724 513.339 157.686 503.996 166.647L501.993 168.56C492.393 177.697 483.91 185.254 474.539 191.984C464.24 199.352 452.284 205.795 439 211.133L438.162 211.467L437.319 211.801C425.998 216.273 413.429 220.476 397.946 224.967L392.224 226.624C388.466 227.711 384.665 228.815 380.854 229.927C375.429 231.511 369.979 233.12 364.57 234.774C363.232 235.184 361.912 235.605 360.58 236.019L357.14 237.088L355.421 237.63C340.294 242.455 327.32 247.667 315.754 253.56C303.517 259.796 292.767 267.27 283.779 275.787L282.788 276.737C273.597 285.658 265.454 296.533 258.588 309.061C252.323 320.494 246.691 333.375 241.37 348.444C238.075 357.776 234.902 367.399 231.819 376.875L227.274 390.875C222.008 407.085 217.133 420.092 211.931 431.81C206.075 445.003 199.113 456.822 191.242 466.938C182.875 477.631 173.447 487.085 164.507 495.852C155.127 505.047 145.735 514.207 136.354 523.349L45.2329 611.706L41.0215 594.846ZM36.2711 575.724L142.295 472.917L145.107 470.124C153.01 462.257 161.617 453.473 169.135 443.728C176.939 433.615 184.01 421.691 190.154 408.287L190.84 406.781C195.53 396.421 200.242 384.675 205.55 370.119L206.331 367.969C208.083 363.127 209.826 358.33 211.575 353.581L212.509 351.054C213.29 348.947 214.073 346.853 214.86 344.767C215.545 342.952 216.234 341.143 216.926 339.342C217.43 338.03 217.938 336.72 218.446 335.417C219.044 333.888 219.645 332.364 220.251 330.847L221.784 327.027C227.571 312.801 233.634 300.508 240.321 289.442C247.474 277.605 255.73 267.112 264.857 258.254C273.996 249.398 284.703 241.469 296.7 234.704C307.924 228.375 320.329 222.716 334.624 217.401C336.582 216.673 338.551 215.955 340.525 215.244C350.26 211.739 360.241 208.399 369.92 205.221L378.031 202.567C388.859 199.004 398.144 195.724 406.474 192.514L407.363 192.17C410.413 190.987 413.334 189.813 416.158 188.637C429.648 183.016 441.712 176.469 452.012 169.178C462.596 161.685 471.749 153.224 481.775 143.732L588.54 40.2033L605.201 44.9821L520.039 127.562C510.774 136.502 501.486 145.468 492.149 154.433L490.375 156.132C482.299 163.847 472.952 172.437 462.645 179.71C452.399 186.94 440.405 193.348 426.997 198.756L425.38 199.404C414.266 203.819 401.744 208.109 386.164 212.844L379.213 214.958C367.579 218.505 355.73 222.18 344.23 226.122C329.457 231.181 316.704 236.623 305.242 242.758C293.283 249.157 282.674 256.718 273.679 265.246L272.619 266.263C263.393 275.213 255.145 285.97 248.102 298.233C241.599 309.554 235.745 322.204 230.202 336.907C225.592 349.134 221.234 361.867 217.018 374.29L215.511 378.734L214.367 382.086C209.314 396.774 204.696 408.714 199.927 419.436C194.002 432.754 187.074 444.61 179.333 454.674C171.001 465.507 161.293 475.189 152.739 483.721L40.4691 592.584L36.2711 575.724ZM31.492 556.628L130.433 460.689L134.208 456.953C141.87 449.342 150.121 440.899 157.405 431.654C165.378 421.532 172.4 410.097 178.874 396.691L179.557 395.269C184.559 384.795 189.496 373.246 195.405 358.196L197.503 352.843C201.913 341.621 206.92 329.116 212.18 317.178C218.278 303.338 224.606 291.317 231.528 280.425C238.875 268.858 247.249 258.479 256.423 249.579L256.653 249.357L257.813 248.268C258.525 247.595 259.234 246.921 259.962 246.257C266.77 240.069 274.292 234.315 282.406 229.093C282.816 228.829 283.216 228.558 283.629 228.296L283.917 228.12C285.242 227.286 286.581 226.463 287.938 225.657C299.001 219.084 311.143 213.149 325.063 207.515L327.391 206.578C338.664 202.07 350.234 197.838 363.81 193.005L367.286 191.767C382.603 186.288 394.28 181.714 404.922 177.026C418.423 171.076 429.997 164.556 440.306 157.091C450.85 149.454 460.326 140.632 469.915 131.503L569.648 34.7922L586.315 39.5719L480.383 142.291L477.091 145.397C468.383 153.578 460.161 160.956 450.848 167.548C440.665 174.755 428.732 181.23 415.379 186.793C411.587 188.373 407.618 189.948 403.4 191.547L401.984 192.081C394.365 194.938 385.921 197.877 376.244 201.048L370.041 203.075C359.903 206.397 349.389 209.908 339.049 213.649C337.33 214.271 335.619 214.897 333.919 215.529C319.527 220.878 307.029 226.581 295.71 232.965C284.041 239.545 273.573 247.208 264.567 255.756L263.456 256.822C254.205 265.798 245.844 276.426 238.601 288.41C231.86 299.565 225.75 311.951 219.923 326.277L219.311 327.818C218.39 330.102 217.478 332.401 216.574 334.716C216.075 335.994 215.578 337.278 215.084 338.563C214.377 340.399 213.674 342.244 212.976 344.097L211.82 347.174L210.166 351.622L209.664 352.982C208.357 356.532 207.053 360.096 205.748 363.689L203.663 369.433C198.12 384.638 193.227 396.767 188.327 407.455C182.246 420.722 175.255 432.515 167.543 442.509C159.185 453.345 149.455 462.99 140.877 471.493L35.6942 573.485L31.492 556.628ZM21.9746 518.402L106.706 436.24L109.583 433.42C111.483 431.556 113.346 429.72 115.181 427.9L117.391 425.706L118.676 424.419L120.847 422.235C125.493 417.541 129.979 412.876 134.398 408.035L134.445 407.979C142.926 397.258 150.539 385.926 157.074 374.297L158.196 372.285C163.311 363.053 168.482 352.834 174.65 339.77L178.733 331.075C179.399 329.661 180.056 328.27 180.707 326.897L182.336 323.469L183.44 321.161L185.023 317.867L185.821 316.221L187.282 313.222L188.158 311.437L189.647 308.423L190.463 306.791L192.079 303.574C192.517 302.709 192.96 301.849 193.401 300.988C193.743 300.318 194.085 299.645 194.429 298.979C201.19 285.896 208.048 274.414 215.393 263.874C217.326 261.099 219.313 258.382 221.35 255.729C227.397 247.854 233.892 240.532 240.735 233.868L240.964 233.64C249.308 225.606 258.577 218.058 268.597 211.243L269.853 210.395C270.522 209.947 271.185 209.493 271.86 209.051C282.593 202.036 294.216 195.559 307.399 189.249C319.14 183.624 331.406 178.232 343.049 173.208L347.536 171.273C362.06 164.987 373.135 159.807 383.231 154.589C394.979 148.511 406.462 141.394 417.416 133.393C426.597 125.648 435.414 117.371 443.198 109.916L446.344 106.895L531.873 23.9568L548.543 28.7364L456.661 117.833L453.821 120.547C445.711 128.276 437.072 136.313 427.866 143.83C416.852 151.434 405.16 158.184 393.113 163.898L391.04 164.874C381.291 169.427 370.463 174.01 356.495 179.494L354.478 180.283C341.775 185.246 328.226 190.625 315.231 196.354C301.61 202.358 289.648 208.608 278.657 215.465C267.164 222.634 256.656 230.79 247.419 239.709L247.118 240.001C237.814 249.031 229.232 259.409 221.609 270.852C214.416 281.647 207.776 293.478 201.31 307.02C195.735 318.699 190.533 330.561 184.514 344.637L183.909 346.052C177.119 361.945 171.626 373.794 166.101 384.473C159.919 396.42 152.673 407.959 144.561 418.771C135.983 428.453 126.707 437.664 117.171 447.027L26.1768 535.259L21.9746 518.402ZM16.6397 497.031L12.4382 480.173L82.9767 411.773C91.5851 403.43 100.014 395.222 108.28 386.797L111.064 383.945C119.729 374.091 128.067 363.533 135.87 352.529C142.525 342.196 149.164 331.186 156.137 318.92L160.344 311.496C165.931 301.645 171.679 291.596 177.604 281.749C185.068 269.346 192.434 258.38 200.124 248.222C207.907 237.948 216.311 228.355 225.125 219.687L226.689 218.162C235.827 209.338 245.906 200.989 256.653 193.345C267.022 185.967 278.151 178.966 290.677 171.941L293.029 170.626C302.82 165.172 312.592 159.988 323.914 154.033L326.662 152.588C339.698 145.736 351.309 139.256 362.192 132.754C373.34 125.42 384.074 117.551 394.134 109.333C403.241 101.116 412.204 92.5199 420.665 84.3274L494.1 13.1178L510.761 17.8952L430.807 95.4225C421.342 104.574 413.121 112.342 404.545 119.858C394.393 127.733 383.415 135.243 371.956 142.154L369.66 143.377C359.651 148.685 348.812 154.106 336.649 159.886L328.453 163.779C317.424 169.038 307.724 173.776 298.079 178.777C285.135 185.491 273.689 192.271 263.087 199.506C257.533 203.296 252.173 207.291 247.04 211.46C246.199 212.145 245.373 212.838 244.543 213.531L243.314 214.552C242.447 215.287 241.596 216.032 240.744 216.777L239.578 217.789L238.754 218.531L237.934 219.275C237.218 219.922 236.5 220.566 235.795 221.22L235.423 221.572C234.462 222.467 233.503 223.365 232.562 224.274L232.183 224.641C222.849 233.707 214.072 243.865 206.099 254.834C198.514 265.262 191.361 276.554 184.231 289.354C177.81 300.877 171.562 312.914 166.089 323.574L164.737 326.209C157.807 339.73 151.343 351.645 145.004 362.591C137.584 373.969 129.602 384.774 121.281 394.705C112.627 403.864 103.664 412.652 95.141 420.914L16.6397 497.031ZM7.12005 458.815L2.91578 441.953L67.7042 379.126C74.5695 372.46 81.0633 366.129 87.5397 359.744C96.692 350.209 105.579 340.235 113.974 330.072C121.77 319.954 129.528 309.333 137.699 297.594L145.456 286.194C150.424 278.903 155.485 271.511 160.544 264.275C168.821 252.443 176.696 241.99 184.618 232.319C193.109 221.955 202.098 212.156 211.336 203.19C220.62 194.204 230.629 185.54 241.205 177.392C251.106 169.761 261.744 162.237 273.726 154.389C282.755 148.474 292.002 142.576 301.032 136.833L307.504 132.717C319.335 125.025 330.106 117.68 340.462 110.244C350.778 102.297 360.944 93.8523 370.694 85.1215L373.239 82.703C382.138 74.2307 390.924 65.7107 398.751 58.1162L456.321 2.28932L472.992 7.06971L409.166 68.9614C402.55 75.3784 396.028 81.6818 389.488 87.8796L386.988 90.2373L384.485 92.5843C383.359 93.6396 382.235 94.7028 381.104 95.7516C371.339 104.123 360.948 112.257 350.253 119.906C339.558 126.953 328.084 134.052 316.152 141.003L304.943 147.53C297.069 152.123 289.075 156.818 281.265 161.558L280.056 162.298L278.855 163.037C268.708 169.265 259.483 175.402 250.826 181.686L249.532 182.63C248.969 183.043 248.398 183.454 247.838 183.868C237.53 191.5 227.76 199.688 218.792 208.314L217.514 209.553C208.216 218.576 199.26 228.531 190.896 239.14C183.054 249.087 175.398 259.846 167.492 272.03C165.921 274.45 164.354 276.889 162.791 279.338C161.957 280.646 161.128 281.96 160.298 283.272C159.604 284.366 158.908 285.458 158.217 286.554C156.314 289.571 154.422 292.588 152.546 295.587L145.725 306.506C138.339 318.314 130.808 329.652 123.359 340.172C115.294 350.674 106.707 360.88 97.865 370.482C89.7382 378.653 81.5896 386.6 72.7122 395.211L7.12005 458.815ZM475.206 7.70737L491.868 12.4855L421.074 81.1332C412.185 89.7524 402.68 98.9175 392.829 107.809C382.863 115.946 372.185 123.776 361.127 131.052C350.317 137.508 338.738 143.97 325.729 150.81L319.776 153.941C310.169 159.003 299.776 164.529 289.696 170.189C277.104 177.253 265.915 184.291 255.491 191.706C244.665 199.407 234.514 207.815 225.31 216.703L224.881 217.118C215.575 226.148 206.709 236.204 198.526 247.006C190.791 257.219 183.385 268.243 175.888 280.709C168.705 292.654 161.566 305.262 155.268 316.385L153.649 319.231C146.933 330.994 140.552 341.553 134.211 351.399C126.47 362.314 118.177 372.816 109.594 382.58C100.467 391.977 91.1374 401.068 81.5854 410.325L11.8742 477.924L7.67406 461.07L77.4327 393.419C84.9079 386.153 91.6018 379.599 98.3647 372.815L99.3134 371.861C108.195 362.223 116.821 351.971 124.972 341.357C132.464 330.774 140.018 319.404 147.424 307.564L154.453 296.312C156.24 293.454 158.043 290.579 159.857 287.703C162.938 282.816 166.05 277.927 169.173 273.116C177.046 260.983 184.666 250.274 192.47 240.376C200.778 229.835 209.674 219.948 218.909 210.985C228.112 202.042 238.277 193.441 249.026 185.477L249.94 184.806L250.86 184.136C259.613 177.735 268.941 171.492 279.227 165.155L281.269 163.9C281.611 163.69 281.954 163.48 282.3 163.27C290.129 158.523 298.144 153.814 306.04 149.208L317.155 142.734C329.125 135.76 340.629 128.642 351.382 121.557C362.158 113.85 372.595 105.68 382.432 97.2472L383.589 96.1628C391.629 88.679 399.559 81.0548 407.593 73.2719L475.206 7.70737ZM529.654 23.3233L444.957 105.454L441.818 108.468C434.057 115.901 425.272 124.15 416.184 131.817C405.37 139.713 393.975 146.776 382.315 152.81L380.974 153.5C371.541 158.334 361.108 163.201 347.672 169.033L339.75 172.454C328.845 177.175 317.469 182.206 306.537 187.441C293.272 193.795 281.571 200.315 270.769 207.373C270.182 207.756 269.607 208.153 269.024 208.542C268.199 209.093 267.368 209.639 266.551 210.2L266.245 210.415C257.135 216.695 248.645 223.56 240.938 230.891L239.723 232.058L239.34 232.435C232.435 239.155 225.875 246.55 219.764 254.51C217.707 257.189 215.701 259.931 213.749 262.732C206.365 273.32 199.465 284.877 192.65 298.063L192.137 299.064L190.297 302.669L189.515 304.225C188.959 305.327 188.404 306.432 187.85 307.546L186.383 310.515L185.181 312.966L183.765 315.878L182.327 318.858L181.007 321.609L178.833 326.18L176.633 330.838L172.839 338.916C166.239 352.899 160.787 363.603 155.327 373.32C148.867 384.821 141.32 396.055 132.896 406.712L131.436 408.292C130.828 408.951 130.222 409.613 129.61 410.268L128.746 411.181C127.915 412.065 127.084 412.948 126.247 413.825L125.381 414.721C124.546 415.59 123.71 416.459 122.868 417.324L121.572 418.643C120.869 419.363 120.166 420.082 119.457 420.797L116.981 423.285L115.281 424.983C111.993 428.256 108.667 431.518 105.31 434.797L21.4114 516.152L17.2084 499.296L94.8422 424.014C103.936 415.202 113.583 405.783 122.8 396.023C131.19 386.006 139.227 375.129 146.713 363.651C153.095 352.631 159.575 340.686 166.522 327.134L168.823 322.652C174.237 312.121 179.973 301.116 185.983 290.338C193.064 277.63 200.175 266.404 207.722 256.021C215.642 245.126 224.342 235.054 233.582 226.087C242.764 217.148 253.115 208.747 264.221 201.168C274.782 193.961 286.16 187.222 299.004 180.562C309.95 174.885 321.024 169.539 331.601 164.509L338.919 161.033C351.49 155.032 362.637 149.422 372.95 143.902C384.552 136.902 395.597 129.347 405.823 121.412C415.142 113.243 423.962 104.862 434.33 94.8137L512.982 18.5429L529.654 23.3233ZM468.52 130.063C458.977 139.148 449.549 147.929 439.123 155.474C428.92 162.858 417.466 169.311 404.106 175.199L402.688 175.82C392.476 180.269 381.203 184.664 366.604 189.886L358.969 192.609C346.212 197.176 335.169 201.264 324.303 205.663C310.291 211.337 298.059 217.316 286.909 223.939C284.53 225.351 282.213 226.82 279.931 228.318C279.38 228.68 278.818 229.034 278.273 229.4L277.276 230.09C270.618 234.627 264.385 239.524 258.653 244.743C257.763 245.552 256.896 246.377 256.028 247.201L255.022 248.144C245.735 257.156 237.261 267.656 229.832 279.355C222.857 290.331 216.481 302.44 210.342 316.374C205.526 327.302 200.926 338.696 196.8 349.15L193.133 358.487C187.143 373.697 182.156 385.282 177.065 395.823C170.662 409.089 163.714 420.404 155.826 430.417C147.381 441.138 137.623 450.769 129.02 459.261L30.941 554.364L26.7395 537.506L118.571 448.461L121.536 445.544C130.343 436.863 138.38 428.772 146.144 420.004C154.331 409.093 161.645 397.448 167.881 385.392L168.593 384.01C173.574 374.291 178.549 363.584 184.47 349.833L187.978 341.641C192.529 331.04 197.673 319.286 203.119 307.882C209.546 294.426 216.14 282.675 223.28 271.959C230.824 260.637 239.314 250.367 248.517 241.437L248.728 241.233C249.227 240.753 249.741 240.281 250.247 239.805L251.469 238.649C251.673 238.458 251.879 238.267 252.087 238.077C257.354 233.257 263.001 228.681 268.974 224.38L271.338 222.69C271.74 222.409 272.153 222.14 272.558 221.862C274.902 220.255 277.284 218.681 279.721 217.161C290.603 210.369 302.484 204.162 316.042 198.185C328.092 192.874 340.694 187.832 352.658 183.146L355.211 182.147C371.222 175.894 383.177 170.823 393.976 165.706C406.105 159.958 417.891 153.151 429.072 145.428C439.482 136.932 449.095 127.85 458.054 119.273L550.766 29.3714L567.431 34.1517L468.52 130.063ZM659.068 58.3566L646.844 54.854L646.858 54.8401L625.755 48.7886L625.751 48.792L587.98 37.963L587.976 37.9665L571.304 33.1861L571.308 33.1826L550.205 27.1304L550.203 27.1317L531.313 21.7143L531.31 21.7171L514.627 16.933L514.634 16.926L493.529 10.8744L493.522 10.8807L476.861 6.10259L476.864 6.09981L455.761 0.046875L388.047 65.7048C382.027 71.5281 375.687 77.6302 369.339 83.6509C359.646 92.329 349.519 100.743 339.267 108.64C328.966 116.037 318.22 123.366 306.423 131.035L303.333 132.999C293.239 139.417 282.8 146.054 272.63 152.716C260.605 160.592 249.927 168.145 239.983 175.807C230.115 183.412 220.701 191.476 211.966 199.809L209.943 201.754C200.651 210.773 191.61 220.629 183.072 231.052C175.117 240.762 167.211 251.255 158.905 263.129C153.84 270.374 148.775 277.77 143.805 285.066L136.05 296.46C127.905 308.163 120.166 318.759 112.411 328.825C104.068 338.923 95.2148 348.859 86.1158 358.34L83.6478 360.77C77.4707 366.843 71.2275 372.921 64.6169 379.336L0.696289 441.319L5.45968 460.426L5.45251 460.433L10.7757 481.786L10.7779 481.784L15.5399 500.885L15.5428 500.882L20.3121 520.015L20.3143 520.013L25.0763 539.113L25.0778 539.112L29.2821 555.973L29.2691 555.985L34.5937 577.34L34.6081 577.326L38.8094 594.193L38.8 594.202L44.1338 615.559L44.1431 615.55L48.3513 632.433L48.339 632.445L51.4924 645.091L60.0957 647.561L60.1231 647.534L76.7809 652.31L76.7636 652.327L97.868 658.379L97.8831 658.365L114.561 663.148L114.546 663.162L135.651 669.213L135.655 669.21L152.321 673.988L152.318 673.991L173.422 680.042L173.431 680.033L192.309 685.447L301.085 579.972C303.363 577.599 305.652 575.234 307.944 572.872L315.652 564.937C319.228 561.25 322.842 557.503 326.401 553.743L328.53 551.485C337.264 542.173 346.106 532.134 354.808 521.648L357.33 518.585C363.425 511.151 369.886 503.038 377.731 492.968L381.982 487.504C388.397 479.278 396.397 469.167 404.694 459.329C413.671 448.671 422.467 439.195 431.581 430.357C440.284 421.887 449.573 413.77 459.905 405.53L461.321 404.405C471.079 396.678 481.063 389.251 489.297 383.222L497.531 377.21C505.627 371.283 515.316 364.1 524.813 356.724C535.459 348.457 545.689 340.015 555.219 331.634C559.868 327.545 564.509 323.35 569.062 319.207L573.583 315.088C577.135 311.849 580.685 308.613 584.278 305.375L694.105 198.88L684.576 160.663L684.577 160.661L669.722 101.078L669.717 101.083L665.511 84.2124L665.515 84.2083L659.068 58.3566Z" fill="url(&quot;#svg1244948115_34839_paint0_linear_119_596&quot;)"></path>
<defs>
<linearGradient id="svg1244948115_34839_paint0_linear_119_596" x1="407.959" y1="-8.76458" x2="-8.57814" y2="197.756" gradientUnits="userSpaceOnUse">
<stop stop-color="#17FAFF" stop-opacity="0.01"></stop>
<stop offset="0.538482" stop-color="#17FAFF" stop-opacity="0.5"></stop>
<stop offset="1" stop-color="#17FAFF" stop-opacity="0.01"></stop>
</linearGradient>
<linearGradient id="svg1244948115_34839_paint0_linear_119_596" x1="407.959" y1="-8.76458" x2="-8.57814" y2="197.756" gradientUnits="userSpaceOnUse">
<stop stop-color="#17FAFF" stop-opacity="0.01"></stop>
<stop offset="0.538482" stop-color="#17FAFF" stop-opacity="0.5"></stop>
<stop offset="1" stop-color="#17FAFF" stop-opacity="0.01"></stop>
</linearGradient></defs>
</svg>