<svg xmlns="http://www.w3.org/2000/svg" xmlns:xlink="http://www.w3.org/1999/xlink" version="1.1" x="0px" y="0px" viewBox="0 0 100 125" style="enable-background:new 0 0 100 100;" xml:space="preserve"><g><g><path d="M34.6,90.2c-0.2,0-0.3,0-0.5-0.1c-0.4-0.2-0.6-0.8-0.4-1.2l12.8-35.1l-15.5-4.4c-0.3-0.1-0.6-0.3-0.7-0.7    c-0.1-0.3,0-0.7,0.2-0.9l31.1-36.9c0.3-0.4,0.8-0.5,1.2-0.2c0.4,0.2,0.6,0.7,0.5,1.2l-9,31.3l15.6,4.5c0.3,0.1,0.6,0.3,0.7,0.7    c0.1,0.3,0,0.7-0.2,0.9L35.4,89.9C35.2,90.1,34.9,90.2,34.6,90.2z"/></g></g><text x="0" y="115" fill="#000000" font-size="5px" font-weight="bold" font-family="'Helvetica Neue', Helvetica, Arial-Unicode, Arial, Sans-serif">Created by Shiva</text><text x="0" y="120" fill="#000000" font-size="5px" font-weight="bold" font-family="'Helvetica Neue', Helvetica, Arial-Unicode, Arial, Sans-serif">from the Noun Project</text></svg>